<svg xmlns="http://www.w3.org/2000/svg" xmlns:xlink="http://www.w3.org/1999/xlink" width="320" zoomAndPan="magnify" viewBox="0 0 240 82.499998" height="110" preserveAspectRatio="xMidYMid meet" version="1.0"><defs><g/><clipPath id="0885ba0e41"><path d="M 157 0 L 238 0 L 238 81.257812 L 157 81.257812 Z M 157 0 " clip-rule="nonzero"/></clipPath></defs><g fill="#182722" fill-opacity="1"><g transform="translate(12.12189, 57.979229)"><g><path d="M 2.453125 -2.40625 L 3.390625 -10.25 C 4.828125 -9.238281 6.25 -8.515625 7.65625 -8.078125 C 9.070312 -7.640625 10.351562 -7.382812 11.5 -7.3125 C 12.65625 -7.25 13.507812 -7.234375 14.0625 -7.265625 C 15.175781 -7.335938 16.125 -7.726562 16.90625 -8.4375 C 17.695312 -9.15625 18.039062 -10.019531 17.9375 -11.03125 C 17.863281 -12.113281 17.457031 -12.929688 16.71875 -13.484375 C 15.988281 -14.046875 15.101562 -14.5 14.0625 -14.84375 C 12.113281 -15.582031 10.289062 -16.429688 8.59375 -17.390625 C 6.90625 -18.347656 5.546875 -19.539062 4.515625 -20.96875 C 3.492188 -22.394531 2.984375 -24.15625 2.984375 -26.25 C 2.984375 -28.332031 3.425781 -30.21875 4.3125 -31.90625 C 5.195312 -33.601562 6.441406 -34.957031 8.046875 -35.96875 C 9.648438 -36.976562 11.484375 -37.535156 13.546875 -37.640625 C 14.515625 -37.710938 15.703125 -37.675781 17.109375 -37.53125 C 18.523438 -37.394531 20.4375 -36.910156 22.84375 -36.078125 L 21.90625 -28.859375 C 19.851562 -29.691406 18.210938 -30.171875 16.984375 -30.296875 C 15.765625 -30.421875 14.859375 -30.460938 14.265625 -30.421875 C 12.941406 -30.359375 11.972656 -29.90625 11.359375 -29.0625 C 10.753906 -28.226562 10.488281 -27.289062 10.5625 -26.25 C 10.664062 -25.195312 11.117188 -24.398438 11.921875 -23.859375 C 12.722656 -23.328125 13.664062 -22.867188 14.75 -22.484375 C 16.695312 -21.785156 18.488281 -20.921875 20.125 -19.890625 C 21.757812 -18.859375 23.070312 -17.617188 24.0625 -16.171875 C 25.0625 -14.734375 25.5625 -13.019531 25.5625 -11.03125 C 25.5625 -8.976562 25.109375 -7.113281 24.203125 -5.4375 C 23.296875 -3.757812 22 -2.414062 20.3125 -1.40625 C 18.625 -0.394531 16.609375 0.175781 14.265625 0.3125 C 13.578125 0.34375 12.628906 0.316406 11.421875 0.234375 C 10.222656 0.148438 8.851562 -0.0859375 7.3125 -0.484375 C 5.78125 -0.890625 4.160156 -1.53125 2.453125 -2.40625 Z M 2.453125 -2.40625 "/></g></g></g><g fill="#182722" fill-opacity="1"><g transform="translate(39.780543, 57.979229)"><g><path d="M 23.53125 0 L 4.1875 0 L 4.1875 -37.375 L 22.90625 -37.375 L 22.90625 -29.90625 L 11.65625 -29.90625 L 11.65625 -22.421875 L 21.484375 -22.421875 L 21.484375 -14.953125 L 11.65625 -14.953125 L 11.65625 -7.46875 L 23.53125 -7.46875 Z M 23.53125 0 "/></g></g></g><g fill="#182722" fill-opacity="1"><g transform="translate(66.132076, 57.979229)"><g><path d="M 27.96875 -28.703125 C 27.269531 -29.085938 26.421875 -29.453125 25.421875 -29.796875 C 24.429688 -30.148438 23.117188 -30.328125 21.484375 -30.328125 C 19.359375 -30.328125 17.546875 -29.914062 16.046875 -29.09375 C 14.546875 -28.269531 13.34375 -27.175781 12.4375 -25.8125 C 11.53125 -24.457031 10.921875 -22.96875 10.609375 -21.34375 C 10.296875 -19.726562 10.296875 -18.109375 10.609375 -16.484375 C 10.921875 -14.867188 11.53125 -13.378906 12.4375 -12.015625 C 13.34375 -10.660156 14.546875 -9.570312 16.046875 -8.75 C 17.546875 -7.9375 19.359375 -7.53125 21.484375 -7.53125 C 23.117188 -7.53125 24.554688 -7.71875 25.796875 -8.09375 C 27.035156 -8.476562 28.003906 -8.847656 28.703125 -9.203125 L 29.703125 -1.46875 C 28.546875 -1.007812 27.21875 -0.628906 25.71875 -0.328125 C 24.21875 -0.0351562 22.804688 0.109375 21.484375 0.109375 C 18.316406 0.109375 15.546875 -0.421875 13.171875 -1.484375 C 10.804688 -2.546875 8.828125 -3.984375 7.234375 -5.796875 C 5.648438 -7.609375 4.46875 -9.640625 3.6875 -11.890625 C 2.90625 -14.140625 2.515625 -16.46875 2.515625 -18.875 C 2.515625 -21.28125 2.90625 -23.601562 3.6875 -25.84375 C 4.46875 -28.09375 5.648438 -30.125 7.234375 -31.9375 C 8.828125 -33.75 10.804688 -35.1875 13.171875 -36.25 C 15.546875 -37.3125 18.316406 -37.84375 21.484375 -37.84375 C 24.203125 -37.84375 26.660156 -37.359375 28.859375 -36.390625 Z M 27.96875 -28.703125 "/></g></g></g><g fill="#182722" fill-opacity="1"><g transform="translate(97.607526, 57.979229)"><g><path d="M 11.65625 -20.34375 L 11.65625 0 L 4.1875 0 L 4.1875 -38.171875 L 6.171875 -38.171875 L 25.046875 -16.203125 L 25.046875 -37.328125 L 32.578125 -37.328125 L 32.578125 0.78125 L 30.578125 0.78125 Z M 11.65625 -20.34375 "/></g></g></g><g fill="#182722" fill-opacity="1"><g transform="translate(134.416021, 57.979229)"><g><path d="M 17.828125 0 L 10.359375 0 L 10.359375 -29.90625 L 1.046875 -29.90625 L 1.046875 -37.328125 L 27.140625 -37.328125 L 27.140625 -29.90625 L 17.828125 -29.90625 Z M 17.828125 0 "/></g></g></g><path fill="#182722" d="M 188.414062 67.183594 C 179.839844 64.570312 173.046875 57.574219 170.691406 48.933594 C 170.402344 47.871094 169.304688 47.242188 168.242188 47.53125 C 167.175781 47.824219 166.550781 48.921875 166.839844 49.984375 C 169.554688 59.9375 177.375 67.992188 187.25 71.003906 C 187.441406 71.066406 187.640625 71.09375 187.832031 71.09375 C 188.6875 71.09375 189.476562 70.539062 189.742188 69.675781 C 190.0625 68.625 189.46875 67.507812 188.414062 67.183594 Z M 188.414062 67.183594 " fill-opacity="1" fill-rule="nonzero"/><path fill="#182722" d="M 168.65625 28.980469 C 168.1875 29.976562 168.613281 31.167969 169.609375 31.640625 C 170.605469 32.113281 171.796875 31.683594 172.265625 30.6875 C 176.617188 21.503906 185.984375 15.570312 196.136719 15.570312 C 210.683594 15.570312 222.519531 27.40625 222.519531 41.953125 C 222.519531 52.105469 216.585938 61.472656 207.398438 65.820312 C 206.402344 66.292969 205.976562 67.484375 206.449219 68.480469 C 206.792969 69.203125 207.507812 69.625 208.253906 69.625 C 208.542969 69.625 208.832031 69.5625 209.109375 69.433594 C 219.679688 64.425781 226.511719 53.640625 226.511719 41.953125 C 226.511719 25.203125 212.886719 11.578125 196.136719 11.578125 C 184.449219 11.578125 173.664062 18.40625 168.65625 28.980469 Z M 168.65625 28.980469 " fill-opacity="1" fill-rule="nonzero"/><g clip-path="url(#0885ba0e41)"><path fill="#06f99f" d="M 232.914062 51.835938 C 232.441406 50.839844 231.257812 50.414062 230.253906 50.886719 C 229.257812 51.359375 228.835938 52.550781 229.304688 53.546875 C 233.867188 63.175781 234.441406 71.070312 230.847656 74.664062 C 227.246094 78.261719 219.351562 77.683594 209.722656 73.125 C 201.308594 69.160156 192.136719 62.4375 183.894531 54.195312 C 175.652344 45.949219 168.929688 36.777344 164.964844 28.363281 C 160.40625 18.734375 159.828125 10.839844 163.425781 7.242188 C 167.019531 3.648438 174.914062 4.222656 184.542969 8.785156 C 185.542969 9.257812 186.730469 8.828125 187.203125 7.832031 C 187.675781 6.835938 187.25 5.648438 186.253906 5.171875 C 174.695312 -0.296875 165.585938 -0.566406 160.601562 4.421875 C 155.613281 9.40625 155.882812 18.515625 161.355469 30.070312 C 165.507812 38.886719 172.511719 48.457031 181.070312 57.019531 C 189.628906 65.578125 199.199219 72.582031 208.015625 76.734375 C 214.078125 79.605469 219.464844 81.042969 223.9375 81.042969 C 227.996094 81.042969 231.296875 79.859375 233.667969 77.488281 C 238.65625 72.503906 238.386719 63.394531 232.914062 51.835938 Z M 232.914062 51.835938 " fill-opacity="1" fill-rule="nonzero"/></g></svg>